<svg width="1487" height="1433" viewBox="0 0 1487 1433" fill="none" xmlns="http://www.w3.org/2000/svg">
<path d="M723.716 14.5874C730.34 -4.02398 756.66 -4.02391 763.284 14.5875L941.019 513.965C943.198 520.088 948.089 524.857 954.265 526.88L1472.09 696.544C1491.37 702.862 1491.37 730.138 1472.09 736.456L954.265 906.12C948.089 908.143 943.198 912.912 941.019 919.035L763.284 1418.41C756.66 1437.02 730.34 1437.02 723.716 1418.41L545.981 919.035C543.802 912.912 538.911 908.143 532.735 906.12L14.9077 736.456C-4.37426 730.138 -4.37426 702.862 14.9077 696.544L532.735 526.88C538.911 524.857 543.802 520.088 545.981 513.965L723.716 14.5874Z" fill="#F0F0F0"/>
</svg>
