<svg width="105" height="26" viewBox="0 0 105 26" fill="none" xmlns="http://www.w3.org/2000/svg">
<path d="M10.3689 9.576C10.5182 8.97867 10.9129 8.68 11.5529 8.68H13.4729C14.1129 8.68 14.4329 8.936 14.4329 9.448C14.4329 9.576 14.4009 9.72533 14.3369 9.896L9.60088 24.136C9.40888 24.712 9.01421 25 8.41688 25H6.30488C5.68621 25 5.28088 24.712 5.08888 24.136L0.352875 9.896C0.288875 9.72533 0.256875 9.576 0.256875 9.448C0.256875 8.936 0.576875 8.68 1.21688 8.68H3.13688C3.77688 8.68 4.17154 8.97867 4.32088 9.576L7.36088 21.192L10.3689 9.576ZM21.3979 4.616C21.3979 4.91467 21.2912 5.17067 21.0779 5.384C20.8645 5.59733 20.6085 5.704 20.3099 5.704H18.3899C18.0912 5.704 17.8352 5.59733 17.6219 5.384C17.4085 5.17067 17.3019 4.91467 17.3019 4.616V2.728C17.3019 2.42933 17.4085 2.17333 17.6219 1.96C17.8352 1.74667 18.0912 1.64 18.3899 1.64H20.3099C20.6085 1.64 20.8645 1.74667 21.0779 1.96C21.2912 2.17333 21.3979 2.42933 21.3979 2.728V4.616ZM21.3979 23.912C21.3979 24.2107 21.2912 24.4667 21.0779 24.68C20.8645 24.8933 20.6085 25 20.3099 25H18.3899C18.0912 25 17.8352 24.8933 17.6219 24.68C17.4085 24.4667 17.3019 24.2107 17.3019 23.912V9.768C17.3019 9.46933 17.4085 9.21333 17.6219 9C17.8352 8.78667 18.0912 8.68 18.3899 8.68H20.3099C20.6085 8.68 20.8645 8.78667 21.0779 9C21.2912 9.21333 21.3979 9.46933 21.3979 9.768V23.912ZM40.2769 23.848C40.2769 24.1893 40.1702 24.4667 39.9569 24.68C39.7435 24.8933 39.4875 25 39.1889 25H37.3969C37.0982 25 36.8422 24.8933 36.6289 24.68C36.4155 24.4453 36.3089 24.1573 36.3089 23.816C36.3089 22.2373 36.3089 21.0213 36.3089 20.168C36.3089 19.2933 36.2982 18.632 36.2769 18.184C36.2769 17.7147 36.2769 17.32 36.2769 17C36.2769 14.8667 36.0422 13.2133 35.5729 12.04C35.1249 10.8667 34.3782 10.28 33.3329 10.28C32.0102 10.28 31.0395 10.568 30.4209 11.144C29.8022 11.6987 29.4929 12.6053 29.4929 13.864V23.912C29.4929 24.2107 29.3862 24.4667 29.1729 24.68C28.9595 24.8933 28.7035 25 28.4049 25H26.4849C26.1862 25 25.9302 24.8933 25.7169 24.68C25.5035 24.4667 25.3969 24.2107 25.3969 23.912V9.448C25.3969 9.14933 25.5035 8.89333 25.7169 8.68C25.9302 8.46667 26.1862 8.36 26.4849 8.36H28.4049C28.8742 8.36 29.2049 8.56267 29.3969 8.968C30.5702 8.56267 31.8822 8.36 33.3329 8.36C34.8475 8.36 36.0529 8.59467 36.9489 9.064C37.8449 9.53333 38.5275 10.184 38.9969 11.016C39.4662 11.8267 39.7862 12.7547 39.9569 13.8C40.1275 14.8453 40.2235 15.944 40.2449 17.096C40.2662 17.416 40.2769 17.8107 40.2769 18.28C40.2769 18.728 40.2769 19.3787 40.2769 20.232C40.2769 21.0853 40.2769 22.2907 40.2769 23.848ZM57.4019 13.064C57.4659 13.2133 57.4979 13.352 57.4979 13.48C57.4979 13.7573 57.3912 13.992 57.1779 14.184C56.9645 14.3547 56.7085 14.4613 56.4099 14.504L54.6819 14.664C54.4259 14.6853 54.1912 14.6213 53.9779 14.472C53.7859 14.3227 53.6579 14.12 53.5939 13.864C53.2739 12.7973 52.7832 11.9333 52.1219 11.272C51.4819 10.6107 50.7032 10.28 49.7859 10.28C49.0819 10.28 48.4419 10.5787 47.8659 11.176C47.2899 11.7733 46.8312 12.5733 46.4899 13.576C46.1485 14.5787 45.9779 15.6773 45.9779 16.872C45.9779 18.92 46.3405 20.52 47.0659 21.672C47.7912 22.824 48.8472 23.4 50.2339 23.4C51.1725 23.4 51.9299 23.048 52.5059 22.344C53.0819 21.64 53.5085 20.6373 53.7859 19.336C53.9352 18.7173 54.3085 18.4293 54.9059 18.472L56.7299 18.632C57.0285 18.6533 57.2739 18.76 57.4659 18.952C57.6792 19.144 57.7859 19.3787 57.7859 19.656C57.7859 19.7413 57.7645 19.848 57.7219 19.976C57.2525 21.576 56.3672 22.8667 55.0659 23.848C53.7645 24.8293 52.1539 25.32 50.2339 25.32C47.5885 25.32 45.5299 24.5627 44.0579 23.048C42.6072 21.512 41.8819 19.4533 41.8819 16.872C41.8819 15.2507 42.2125 13.8 42.8739 12.52C43.5565 11.24 44.4845 10.2267 45.6579 9.48C46.8525 8.73333 48.2285 8.36 49.7859 8.36C50.9592 8.36 52.0472 8.57333 53.0499 9C54.0739 9.42667 54.9592 9.992 55.7059 10.696C56.4739 11.4 57.0392 12.1893 57.4019 13.064ZM73.8704 22.856C73.209 23.5173 72.3664 24.0933 71.3424 24.584C70.3397 25.0747 69.241 25.32 68.0464 25.32C65.401 25.32 63.3424 24.5627 61.8704 23.048C60.4197 21.512 59.6944 19.4533 59.6944 16.872C59.6944 15.2507 60.025 13.8 60.6864 12.52C61.369 11.24 62.297 10.2267 63.4704 9.48C64.665 8.73333 66.041 8.36 67.5984 8.36C69.1984 8.36 70.5957 8.70133 71.7904 9.384C73.0064 10.0667 73.9557 11.0053 74.6384 12.2C75.321 13.3947 75.6624 14.7707 75.6624 16.328C75.6624 16.6267 75.5557 16.872 75.3424 17.064C75.1504 17.256 74.905 17.352 74.6064 17.352H63.1504C63.2357 19.2507 63.737 20.7333 64.6544 21.8C65.5717 22.8667 66.7024 23.4 68.0464 23.4C68.729 23.4 69.273 23.2187 69.6784 22.856C70.0837 22.4933 70.489 21.9813 70.8944 21.32C71.129 20.8507 71.4917 20.6693 71.9824 20.776L73.1664 21.064C73.8277 21.2347 74.1584 21.608 74.1584 22.184C74.1584 22.44 74.0624 22.664 73.8704 22.856ZM67.5984 10.28C66.9797 10.28 66.3717 10.5147 65.7744 10.984C65.177 11.432 64.6544 12.04 64.2064 12.808C63.7584 13.576 63.449 14.4507 63.2784 15.432H71.5344C71.4064 13.9173 70.9904 12.68 70.2864 11.72C69.5824 10.76 68.6864 10.28 67.5984 10.28ZM92.6206 23.848C92.6206 24.1893 92.514 24.4667 92.3006 24.68C92.0873 24.8933 91.8313 25 91.5326 25H89.7406C89.442 25 89.186 24.8933 88.9726 24.68C88.7593 24.4453 88.6526 24.1573 88.6526 23.816C88.6526 22.2373 88.6526 21.0213 88.6526 20.168C88.6526 19.2933 88.642 18.632 88.6206 18.184C88.6206 17.7147 88.6206 17.32 88.6206 17C88.6206 14.8667 88.386 13.2133 87.9166 12.04C87.4686 10.8667 86.722 10.28 85.6766 10.28C84.354 10.28 83.3833 10.568 82.7646 11.144C82.146 11.6987 81.8366 12.6053 81.8366 13.864V23.912C81.8366 24.2107 81.73 24.4667 81.5166 24.68C81.3033 24.8933 81.0473 25 80.7486 25H78.8286C78.53 25 78.274 24.8933 78.0606 24.68C77.8473 24.4667 77.7406 24.2107 77.7406 23.912V9.448C77.7406 9.14933 77.8473 8.89333 78.0606 8.68C78.274 8.46667 78.53 8.36 78.8286 8.36H80.7486C81.218 8.36 81.5486 8.56267 81.7406 8.968C82.914 8.56267 84.226 8.36 85.6766 8.36C87.1913 8.36 88.3966 8.59467 89.2926 9.064C90.1886 9.53333 90.8713 10.184 91.3406 11.016C91.81 11.8267 92.13 12.7547 92.3006 13.8C92.4713 14.8453 92.5673 15.944 92.5886 17.096C92.61 17.416 92.6206 17.8107 92.6206 18.28C92.6206 18.728 92.6206 19.3787 92.6206 20.232C92.6206 21.0853 92.6206 22.2907 92.6206 23.848ZM100.66 24.264C100.66 24.968 100.308 25.32 99.6041 25.32H97.9401C97.2361 25.32 96.8841 24.968 96.8841 24.264V10.6H93.8441C93.1401 10.6 92.7881 10.28 92.7881 9.64C92.7881 9 93.1401 8.68 93.8441 8.68H96.8841V1.736C96.8841 1.032 97.2361 0.679998 97.9401 0.679998H99.6041C100.308 0.679998 100.66 1.032 100.66 1.736V8.68H103.7C104.404 8.68 104.756 9 104.756 9.64C104.756 10.28 104.404 10.6 103.7 10.6H100.66V24.264Z" fill="black"/>
</svg>
